<svg width="20" height="20" viewBox="0 0 20 20" fill="none" xmlns="http://www.w3.org/2000/svg">
<g clip-path="url(#clip0_74_135)">
<path d="M3.33337 6.66671C3.33337 5.78265 3.68456 4.93481 4.30968 4.30968C4.93481 3.68456 5.78265 3.33337 6.66671 3.33337H13.3334C14.2174 3.33337 15.0653 3.68456 15.6904 4.30968C16.3155 4.93481 16.6667 5.78265 16.6667 6.66671V13.3334C16.6667 14.2174 16.3155 15.0653 15.6904 15.6904C15.0653 16.3155 14.2174 16.6667 13.3334 16.6667H6.66671C5.78265 16.6667 4.93481 16.3155 4.30968 15.6904C3.68456 15.0653 3.33337 14.2174 3.33337 13.3334V6.66671Z" stroke="white" stroke-width="2.75" stroke-linecap="round" stroke-linejoin="round"/>
<path d="M7.5 10C7.5 10.663 7.76339 11.2989 8.23223 11.7678C8.70107 12.2366 9.33696 12.5 10 12.5C10.663 12.5 11.2989 12.2366 11.7678 11.7678C12.2366 11.2989 12.5 10.663 12.5 10C12.5 9.33696 12.2366 8.70107 11.7678 8.23223C11.2989 7.76339 10.663 7.5 10 7.5C9.33696 7.5 8.70107 7.76339 8.23223 8.23223C7.76339 8.70107 7.5 9.33696 7.5 10Z" stroke="white" stroke-width="2.75" stroke-linecap="round" stroke-linejoin="round"/>
<path d="M13.75 6.25V6.25833" stroke="white" stroke-width="2.75" stroke-linecap="round" stroke-linejoin="round"/>
</g>
<defs>
<clipPath id="clip0_74_135">
<rect width="20" height="20" fill="white"/>
</clipPath>
</defs>
</svg>
