<svg width="47" height="44" viewBox="0 0 47 44" fill="none" xmlns="http://www.w3.org/2000/svg">
<g clip-path="url(#clip0_441_419)">
<path d="M5.875 18.3333C5.875 20.0186 6.22958 21.6874 6.91848 23.2444C7.60739 24.8015 8.61714 26.2162 9.89008 27.4079C11.163 28.5996 12.6742 29.5449 14.3374 30.1898C16.0006 30.8347 17.7831 31.1667 19.5833 31.1667C21.3835 31.1667 23.1661 30.8347 24.8293 30.1898C26.4925 29.5449 28.0037 28.5996 29.2766 27.4079C30.5495 26.2162 31.5593 24.8015 32.2482 23.2444C32.9371 21.6874 33.2917 20.0186 33.2917 18.3333C33.2917 16.648 32.9371 14.9792 32.2482 13.4222C31.5593 11.8652 30.5495 10.4505 29.2766 9.2588C28.0037 8.06711 26.4925 7.12181 24.8293 6.47688C23.1661 5.83194 21.3835 5.5 19.5833 5.5C17.7831 5.5 16.0006 5.83194 14.3374 6.47688C12.6742 7.12181 11.163 8.06711 9.89008 9.2588C8.61714 10.4505 7.60739 11.8652 6.91848 13.4222C6.22958 14.9792 5.875 16.648 5.875 18.3333Z" stroke="white" stroke-width="2.75" stroke-linecap="round" stroke-linejoin="round"/>
<path d="M41.125 38.5L29.375 27.5" stroke="white" stroke-width="2.75" stroke-linecap="round" stroke-linejoin="round"/>
</g>
<defs>
<clipPath id="clip0_441_419">
<rect width="47" height="44" fill="white"/>
</clipPath>
</defs>
</svg>
