<svg width="19" height="19" viewBox="0 0 19 19" fill="none" xmlns="http://www.w3.org/2000/svg">
<path d="M17.3441 6.0975V9.45917C15.8264 9.3092 14.3793 8.74679 13.1607 7.83333V11.5833C13.1605 12.6009 12.8725 13.5979 12.3297 14.46C11.7868 15.3221 11.0112 16.0145 10.0915 16.4578C9.17192 16.9011 8.1455 17.0774 7.12991 16.9666C6.11431 16.8557 5.15061 16.4621 4.34921 15.8309C3.54781 15.1998 2.94112 14.3565 2.59867 13.3978C2.25621 12.439 2.19183 11.4036 2.41289 10.4101C2.63396 9.41658 3.13154 8.5052 3.84863 7.78035C4.56571 7.0555 5.47329 6.5465 6.46739 6.31167V9.91667C6.18216 10.1297 5.95635 10.4119 5.81139 10.7363C5.66644 11.0608 5.60716 11.4167 5.63918 11.7704C5.6712 12.1241 5.79345 12.4638 5.99434 12.7572C6.19523 13.0505 6.46807 13.2879 6.78697 13.4467C7.10587 13.6055 7.46023 13.6805 7.81641 13.6646C8.17259 13.6486 8.51876 13.5422 8.82205 13.3555C9.12534 13.1688 9.37568 12.908 9.5493 12.5978C9.72292 12.2877 9.81406 11.9385 9.81406 11.5833V2H13.2302C13.4044 3.02367 13.894 3.96802 14.6311 4.70219C15.3682 5.43636 16.3163 5.92399 17.3441 6.0975Z" stroke="white" stroke-width="2.75" stroke-linecap="round" stroke-linejoin="round"/>
</svg>
